<svg enable-background="new 0 0 499.678 499.678" height="512" viewBox="0 0 499.678 499.678" width="512" xmlns="http://www.w3.org/2000/svg"><path d="m318.183 266.704 8.696-8.696c7.894-7.894 18.407-12.699 30.016-14.047 16.719-1.941 32.664-9.135 45.197-21.668 30.932-30.932 29.373-82.641-3.483-115.497-32.855-32.855-84.565-34.414-115.497-3.483-12.533 12.533-19.727 28.478-21.668 45.197-1.348 11.609-6.153 22.122-14.047 30.016l-8.696 8.696c-6.451 6.451-14.66 10.934-23.857 13.027-27.135 6.177-51.355 19.402-70.389 38.436l-132.166 132.168c-9.608 9.608-8.537 26.256 2.392 37.185l82.686 82.686c10.929 10.929 27.577 12 37.185 2.392l132.168-132.166c19.034-19.034 32.259-43.254 38.436-70.389 2.093-9.197 6.576-17.405 13.027-23.857z" fill="#c1e5ef"/><g fill="#96b4eb"><path d="m240.286 387.384 26.433-26.433c.008-.008.015-.016.023-.024 8.838-8.857 32.28-44.079 33.784-57.61l-99.284-99.283c-21.631 7.087-40.997 18.864-56.787 34.653l-132.166 132.166c-10.316 10.207-7.572 27.622 2.392 37.185l23.625 23.625 59.062 59.061c4.098 4.099 9.001 6.811 14.035 8.093 8.079 2.121 17.175.357 23.15-5.701z"/><circle cx="337.089" cy="192.632" r="32.1"/><path d="m428.222 137.688-60.504-60.504 57.856-57.856c10.494-10.494 27.508-10.494 38.001 0l22.503 22.503c10.494 10.494 10.494 27.508 0 38.001z"/></g><g fill="#d789b9"><path d="m233.525 267.879-20.64-20.64c-2.855-2.855-6.719-4.083-10.445-3.693-3.118.124-6.2 1.363-8.581 3.743l-26.062 26.062c-5.024 5.024-5.024 13.17 0 18.195 5.024 5.024 13.17 5.024 18.195 0l17.406-17.406 11.933 11.933c5.024 5.024 13.17 5.024 18.194 0s5.024-13.17 0-18.194z"/><path d="m141.212 379.917c-5.024-5.024-5.024-13.17 0-18.194l26.062-26.062c5.024-5.024 13.17-5.024 18.195 0 5.024 5.024 5.024 13.17 0 18.194l-26.062 26.062c-5.025 5.024-13.171 5.024-18.195 0z"/><path d="m85.674 435.455c-5.024-5.024-5.024-13.17 0-18.194l26.062-26.062c5.024-5.024 13.17-5.024 18.195 0 5.024 5.024 5.024 13.17 0 18.194l-26.062 26.062c-5.025 5.024-13.171 5.024-18.195 0z"/><path d="m54.781 404.562c-5.024-5.024-5.024-13.17 0-18.194l26.062-26.062c5.024-5.024 13.17-5.024 18.195 0 5.024 5.024 5.024 13.17 0 18.194l-26.062 26.062c-5.025 5.025-13.17 5.025-18.195 0z"/><circle cx="145.479" cy="315.34" r="13.909"/></g><path d="m398.609 106.797c-4.082-4.082-8.455-7.678-13.043-10.791 13.065 22.685 6.676 55.866-17.013 79.554-11.057 11.057-24.182 18.343-37.344 21.644-9.139 2.292-17.8 7.144-24.764 14.108l-7.672 7.671c-5.691 5.691-10.046 12.533-12.657 19.883-7.702 21.686-20.55 41.871-37.342 58.663l-116.596 116.598c-8.476 8.476-21.259 9.436-28.551 2.143l-55.173-55.173c-7.292-7.292-6.333-20.075 2.143-28.551l-38.307 38.307c-9.608 9.608-8.537 26.256 2.392 37.185l82.686 82.686c10.929 10.929 27.577 12 37.185 2.392l132.167-132.165c19.034-19.034 32.259-43.254 38.436-70.389 2.093-9.197 6.576-17.406 13.027-23.857l8.696-8.696c7.894-7.894 18.407-12.699 30.016-14.047 16.719-1.941 32.664-9.135 45.197-21.668 30.932-30.932 29.373-82.642-3.483-115.497z" fill="#a7adf1"/><path d="m359.787 215.33c10.044-10.045 12.032-25.086 5.981-37.118-10.444 9.571-22.484 15.963-34.558 18.991-7.936 1.99-15.51 5.914-21.927 11.472 1.374 2.378 3.073 4.62 5.107 6.655 12.536 12.536 32.861 12.536 45.397 0z" fill="#8388ef"/><path d="m134.553 493.117 132.167-132.166c15.79-15.79 27.566-35.156 34.654-56.787l-31.949-31.949c-5.963 9.038-12.877 17.543-20.649 25.315l-116.598 116.597c-8.476 8.476-21.259 9.436-28.551 2.143l-55.173-55.173c-7.292-7.292-6.333-20.075 2.143-28.551l-39.24 39.304c-9.285 10.37-6.217 27.027 3.325 36.188l82.686 82.687c6.831 6.831 15.895 9.811 24.079 8.739 4.93-.638 9.565-2.793 13.106-6.347z" fill="#8388ef"/><path d="m64.253 376.896-9.472 9.471c-5.024 5.024-5.024 13.17 0 18.195 5.024 5.024 13.17 5.024 18.194 0l9.471-9.472z" fill="#c668b9"/><path d="m118.316 421.007c-5.465.638-10.842-.89-14.689-4.737l-8.482-8.482-9.471 9.472c-5.024 5.024-5.024 13.17 0 18.194s13.17 5.024 18.195 0z" fill="#c668b9"/><path d="m165.981 419.548c-1.54 0-3.079-.589-4.251-1.766-2.339-2.349-2.331-6.147.017-8.485l41.805-41.637c2.348-2.338 6.147-2.33 8.485.017 2.339 2.349 2.331 6.147-.017 8.485l-41.805 41.637c-1.171 1.166-2.703 1.749-4.234 1.749z" fill="#6280cc"/><path d="m134.415 451.283c-1.519 0-3.038-.573-4.206-1.722-2.363-2.323-2.395-6.122-.072-8.484l11.63-11.829c2.323-2.364 6.122-2.396 8.485-.072 2.363 2.323 2.395 6.122.072 8.484l-11.63 11.829c-1.175 1.195-2.727 1.794-4.279 1.794z" fill="#6280cc"/><path d="m120.164 465.534c-1.536 0-3.071-.586-4.242-1.757-2.343-2.343-2.344-6.143-.001-8.485l3.395-3.396c2.344-2.344 6.143-2.343 8.485-.001 2.343 2.343 2.344 6.143.001 8.485l-3.395 3.396c-1.172 1.172-2.707 1.758-4.243 1.758z" fill="#6280cc"/><path d="m329.906 119.405c-4.551 0-8.665-3.126-9.734-7.749-1.245-5.381 2.109-10.752 7.49-11.996 2.229-.516 4.521-.933 6.813-1.241 5.474-.739 10.508 3.102 11.245 8.576.737 5.473-3.103 10.508-8.576 11.244-1.677.227-3.351.531-4.976.907-.758.175-1.517.259-2.262.259z" fill="#fff"/><path d="m290.724 158.6c-.919 0-1.853-.128-2.779-.396-5.306-1.532-8.365-7.076-6.833-12.382 3.707-12.834 10.251-23.846 18.924-31.846 4.06-3.743 10.386-3.488 14.13.572s3.488 10.387-.572 14.131c-5.987 5.521-10.576 13.368-13.268 22.691-1.264 4.38-5.262 7.23-9.602 7.23z" fill="#fff"/><path d="m415.961 139.27-48.19-48.19c-7.455-7.455-7.455-19.543 0-26.998l26.866-26.866c7.455-7.455 19.543-7.455 26.998 0l48.19 48.19c7.455 7.455 7.455 19.542 0 26.998l-26.866 26.866c-7.456 7.455-19.543 7.455-26.998 0z" fill="#96b4eb"/><path d="m469.824 85.407-29.201-29.201c7.455 7.456 7.455 19.542 0 26.998l-26.866 26.866c-7.455 7.455-19.543 7.455-26.998 0l29.201 29.201c7.455 7.455 19.543 7.455 26.998 0l26.866-26.866c7.456-7.456 7.456-19.543 0-26.998z" fill="#8388ef"/><path d="m469.824 95.407c-2.56 0-5.118-.977-7.071-2.929l-48.19-48.19c-3.905-3.905-3.905-10.237.001-14.143 3.905-3.904 10.236-3.903 14.142 0l48.19 48.191c3.905 3.905 3.905 10.237 0 14.142-1.953 1.952-4.513 2.929-7.072 2.929z" fill="#6280cc"/><path d="m243.799 229.566c-2.359 0-4.597-1.4-5.55-3.718-1.262-3.063.199-6.57 3.263-7.832 27.984-11.523 33.679-35.288 33.733-35.527.734-3.231 3.948-5.253 7.18-4.521 3.231.734 5.255 3.949 4.521 7.181-.278 1.222-7.191 30.097-40.865 43.963-.747.307-1.521.454-2.282.454z" fill="#95cde6"/><path d="m186.163 2.447 8.214 23.098c.352.989 1.048 1.773 1.927 2.168l20.521 9.246c2.899 1.306 2.899 5.925 0 7.232l-20.521 9.246c-.879.396-1.575 1.18-1.927 2.168l-8.214 23.098c-1.16 3.263-5.265 3.263-6.425 0l-8.214-23.098c-.352-.989-1.048-1.773-1.927-2.168l-20.521-9.246c-2.899-1.306-2.899-5.925 0-7.232l20.521-9.246c.879-.396 1.575-1.18 1.927-2.168l8.214-23.098c1.161-3.263 5.265-3.263 6.425 0z" fill="#c1e5ef"/><ellipse cx="126.371" cy="151.293" fill="#96b4eb" rx="17.937" ry="17.937" transform="matrix(.232 -.973 .973 .232 -50.07 239.202)"/><circle cx="302.428" cy="20.388" fill="#96b4eb" r="7.737"/><path d="m464.775 231.303 6.093 17.133c.261.734.777 1.315 1.429 1.609l15.222 6.858c2.151.969 2.151 4.395 0 5.364l-15.222 6.858c-.652.294-1.168.875-1.429 1.609l-6.093 17.133c-.861 2.421-3.905 2.421-4.766 0l-6.093-17.133c-.261-.734-.777-1.315-1.429-1.609l-15.222-6.858c-2.151-.969-2.151-4.395 0-5.364l15.222-6.858c.652-.294 1.168-.875 1.429-1.609l6.093-17.133c.861-2.421 3.905-2.421 4.766 0z" fill="#c1e5ef"/></svg>