<svg enable-background="new 0 0 489.105 489.105" height="512" viewBox="0 0 489.105 489.105" width="512" xmlns="http://www.w3.org/2000/svg"><path d="m338.686 181.443-30.131-39.649c-4.806-6.325-7.418-14.123-7.418-22.153v-93.499h-127.118v93.499c0 8.03-2.611 15.828-7.418 22.153l-30.131 39.649c-12.682 16.689-19.582 37.261-19.604 58.449l-.242 208.826c-.022 22.298 17.533 40.387 39.196 40.387h163.517c21.663 0 39.218-18.089 39.196-40.387l-.243-208.826c-.022-21.188-6.922-41.761-19.604-58.449z" fill="#c1e5ef"/><path d="m312.265 194.051-13.4-17.633h-122.082l-14.033 18.573c-9.578 14.676-16.322 30.11-16.338 48.743l-.183 183.647c0 23.163 1.6 35.517 29.603 35.517h123.495c29.602 0 29.602-14.149 29.602-35.517l-.183-183.647c-.017-18.633-6.902-35.006-16.481-49.683z" fill="#e8a284"/><path d="m316.817 201.564c-2.565-5.57-14.166-20.063-17.951-25.146h-122.083l-14.033 18.573c-1.417 2.17-2.762 4.361-4.042 6.573z" fill="#efc5b4"/><path d="m316.403 231.699-16.119-10.147c-8.526-5.367-19.788-2.807-25.156 5.719l-9.628 15.294c-5.367 8.526-2.807 19.788 5.719 25.155l16.119 10.147c8.526 5.367 19.788 2.807 25.155-5.719l9.628-15.294c5.368-8.525 2.808-19.788-5.718-25.155z" fill="#faf1a9"/><path d="m250.429 233.058-19.045.232c-10.074.123-18.141 8.389-18.018 18.463l.22 18.071c.123 10.074 8.389 18.141 18.463 18.018l19.045-.232c10.074-.123 18.141-8.389 18.018-18.463l-.22-18.071c-.123-10.074-8.389-18.141-18.463-18.018z" fill="#faf1a9"/><path d="m269.11 275.147c-3.279 0-5.958-2.639-5.998-5.927l-.22-18.071c-.04-3.313 2.613-6.032 5.927-6.073h.075c3.279 0 5.958 2.639 5.998 5.927l.22 18.071c.04 3.313-2.613 6.032-5.927 6.073-.025 0-.05 0-.075 0z" fill="#d08372"/><path d="m184.73 225.283-17.713 7.001c-9.369 3.703-13.963 14.3-10.26 23.67l6.643 16.807c3.703 9.369 14.3 13.963 23.669 10.26l17.713-7.001c9.369-3.703 13.963-14.3 10.26-23.669l-6.643-16.807c-3.702-9.37-14.299-13.964-23.669-10.261z" fill="#faf1a9"/><path d="m213.573 268.683c2.937-4.736 3.675-10.752 1.469-16.333l-1.452-3.673" fill="#faf1a9"/><path d="m213.567 274.684c-1.079 0-2.172-.291-3.157-.902-2.815-1.747-3.683-5.445-1.936-8.262 2.066-3.33 2.427-7.327.988-10.964l-1.451-3.674c-1.218-3.082.293-6.567 3.375-7.785 3.083-1.218 6.567.293 7.785 3.375l1.451 3.673c2.805 7.097 2.076 15.209-1.951 21.701-1.135 1.831-3.097 2.838-5.104 2.838z" fill="#d08372"/><path d="m358.29 239.892c-.021-21.188-6.921-41.761-19.604-58.449l-30.131-39.649c-4.806-6.325-7.418-14.124-7.418-22.153v-93.499h-42.275v106.773c0 7.02 2.013 13.839 5.718 19.369l16.17 24.134 14.524 11.158c9.776 14.591 13.615 34.601 13.631 53.126l.699 155.534c.017 19.496-16.155 41.243-32.854 41.243l-129.912-6.55c-16.081 0-29.22-14.667-30.156-33.162l-.059 50.951c-.022 22.298 17.532 40.387 39.196 40.387h163.517c21.663 0 39.218-18.089 39.196-40.387z" fill="#a7adf1"/><path d="m328.928 427.382-.184-183.648c-.016-18.633-6.901-35.006-16.479-49.683l-13.4-17.633h-18.115l7.057 10.532c9.777 14.592 15.096 32.579 15.112 51.104l.187 157.561c.017 19.496-13.516 35.312-30.215 35.312h-126.052c-.199 0-.395-.013-.593-.017.222 20.881 3.043 31.986 29.584 31.986h123.495c29.603.002 29.603-14.147 29.603-35.514z" fill="#d57b84"/><path d="m316.811 201.554c-3.605-7.113-13.147-18.62-17.945-25.136h-18.115l7.057 10.532c3.06 4.567 5.683 9.468 7.844 14.613h21.164c-.002-.003-.003-.006-.005-.009z" fill="#d994b3"/><path d="m316.403 231.699-14.789-9.31c.849 5.136 1.301 10.377 1.306 15.666l.05 41.624c3.807-1.303 7.214-3.859 9.525-7.53l9.628-15.295c5.366-8.525 2.806-19.788-5.72-25.155z" fill="#dfb5a7"/><g fill="#be545e"><path d="m279.33 377.267c-3.313 0-6-2.687-6-6v-14.124c0-3.313 2.687-6 6-6 3.314 0 6 2.687 6 6v14.124c0 3.314-2.687 6-6 6z"/><path d="m246.543 416.379c-3.314 0-6-2.686-6-6v-14.125c0-3.313 2.686-6 6-6 3.313 0 6 2.687 6 6v14.125c0 3.314-2.686 6-6 6z"/><path d="m291.499 425.436c-3.314 0-6-2.687-6-6v-14.125c0-3.313 2.686-6 6-6 3.313 0 6 2.687 6 6v14.125c0 3.314-2.687 6-6 6z"/></g><path d="m291.176 63.441h-107.196c-13.82 0-25.023-11.203-25.023-25.023v-13.395c-.001-13.82 11.203-25.023 25.023-25.023h107.197c13.82 0 25.023 11.203 25.023 25.023v13.394c0 13.82-11.204 25.024-25.024 25.024z" fill="#a07575"/><path d="m243.696 36.137h-26.142c-5.522 0-10-4.477-10-10 0-5.522 4.478-10 10-10h26.142c5.522 0 10 4.478 10 10 0 5.523-4.478 10-10 10z" fill="#fff"/><path d="m190.642 36.137h-5.12c-5.523 0-10-4.477-10-10 0-5.522 4.477-10 10-10h5.12c5.522 0 10 4.478 10 10 0 5.523-4.477 10-10 10z" fill="#fff"/><path d="m65.189 39.504 8.472 23.822c.363 1.02 1.081 1.828 1.987 2.236l21.165 9.535c2.99 1.347 2.99 6.111 0 7.459l-21.165 9.536c-.906.408-1.624 1.216-1.987 2.236l-8.472 23.822c-1.197 3.366-5.43 3.366-6.627 0l-8.472-23.822c-.363-1.02-1.081-1.828-1.987-2.236l-21.165-9.536c-2.99-1.347-2.99-6.111 0-7.459l21.165-9.535c.906-.408 1.624-1.217 1.987-2.236l8.472-23.822c1.197-3.366 5.43-3.366 6.627 0z" fill="#efc5b4"/><ellipse cx="401.599" cy="119.156" fill="#e8a284" rx="18.499" ry="18.499" transform="matrix(.23 -.973 .973 .23 193.362 482.635)"/><path d="m36.712 202.087c0 4.407-3.573 7.98-7.98 7.98s-7.98-3.573-7.98-7.98 3.573-7.98 7.98-7.98 7.98 3.573 7.98 7.98z" fill="#e8a284"/><path d="m443.232 173.111 6.284 17.671c.269.757.802 1.356 1.474 1.659l15.7 7.073c2.218.999 2.218 4.533 0 5.533l-15.7 7.073c-.672.303-1.205.902-1.474 1.659l-6.284 17.671c-.888 2.496-4.028 2.496-4.915 0l-6.284-17.671c-.269-.757-.802-1.356-1.474-1.659l-15.7-7.073c-2.218-.999-2.218-4.533 0-5.533l15.7-7.073c.672-.303 1.205-.902 1.474-1.659l6.284-17.671c.887-2.497 4.027-2.497 4.915 0z" fill="#efc5b4"/></svg>