<svg id="Capa_1" enable-background="new 0 0 491.41 491.41" height="512" viewBox="0 0 491.41 491.41" width="512" xmlns="http://www.w3.org/2000/svg"><g><g><path d="m312.936 338.302c30.08-30.08 50.014-65.073 58.52-98.393 2.322-9.096 23.142-65.537 23.142-65.537 8.419-20.41 20.789-38.953 36.401-54.564l45.952-45.952-58.937-58.937-46.037 46.037c-15.556 15.557-34.026 27.896-54.352 36.313 0 0-56.421 20.54-65.481 22.83-33.438 8.449-68.589 28.424-98.788 58.623-19.484 19.484-30.305 34.521-40.928 56.338-9.366 19.234-18.388 36.198-30.492 52.04-7.542 9.871-17.351 17.78-28.471 23.32-14.64 7.293-31.344 22.033-43.81 37.731-14.212 17.898-12.514 43.68 3.646 59.84l69.689 69.689c15.378 15.378 39.558 17.687 57.485 5.374 16.76-11.512 32.717-27.619 40.379-42.451 7.014-13.577 16.732-25.609 28.645-35.179 13.59-10.917 27.9-19.967 44.999-28.293 21.817-10.625 38.954-19.345 58.438-38.829z" fill="#a07575"/><path d="m418.014 14.919-56.547 56.343 24.465 24.465c5.939 5.939 5.961 15.562.048 21.527l-12.022 12.13c-12.224 12.224-21.91 26.743-28.502 42.724 0 0-16.302 44.193-18.12 51.315-6.66 26.089-22.268 53.489-45.821 77.041-15.256 15.256-28.674 22.084-45.757 30.402-13.082 6.37-24.079 13.281-34.502 21.568-9.524 7.572-17.504 17.001-23.016 27.848-5.949 11.707-18.566 24.47-31.816 33.559-14.021 9.619-32.932 7.778-44.956-4.245l-54.567-54.566c-9.291-9.291-12.468-22.642-9.1-34.63-10.02 7.633-19.991 17.478-28.146 27.749-14.213 17.898-12.515 43.68 3.646 59.841l69.689 69.689c15.378 15.378 39.558 17.687 57.485 5.374 16.661-11.444 32.528-27.429 40.242-42.188 7.125-13.631 16.791-25.81 28.782-35.442 13.59-10.917 27.9-19.967 44.999-28.293 21.817-10.623 38.954-19.343 58.438-38.828 30.08-30.08 50.014-65.073 58.52-98.393 2.322-9.096 23.142-65.537 23.142-65.537 8.419-20.409 20.789-38.953 36.401-54.564l45.952-45.952z" fill="#925873"/><g><path d="m102.53 395.078c-1.536 0-3.071-.586-4.243-1.757-2.343-2.343-2.343-6.142 0-8.485l231.276-231.276c2.342-2.343 6.143-2.343 8.484 0 2.344 2.343 2.344 6.142 0 8.485l-231.274 231.276c-1.172 1.171-2.708 1.757-4.243 1.757z" fill="#913c5d"/></g><g><path d="m71.114 354.175c-2.041 0-4.029-1.041-5.154-2.919-1.702-2.843-.777-6.528 2.066-8.23 34.128-20.433 67.647-65.996 97.221-106.195 18.175-24.706 33.872-46.043 47.602-58.805 2.427-2.257 6.224-2.118 8.479.309 2.256 2.427 2.118 6.223-.31 8.48-12.903 11.994-29.031 33.917-46.105 57.127-30.244 41.111-64.523 87.707-100.723 109.38-.965.578-2.027.853-3.076.853z" fill="#913c5d"/></g><g><path d="m142.468 425.263c-1.049 0-2.111-.275-3.076-.853-2.843-1.702-3.768-5.387-2.066-8.23 21.74-36.31 67.735-70.157 108.316-100.02 23.184-17.061 45.084-33.176 58.26-46.881 2.297-2.389 6.096-2.463 8.483-.167 2.389 2.297 2.464 6.095.167 8.484-13.889 14.445-36.188 30.855-59.798 48.229-39.67 29.192-84.633 62.28-105.133 96.519-1.124 1.878-3.113 2.919-5.153 2.919z" fill="#913c5d"/></g><path d="m231.441 126.736c-25.604 9.917-51.403 26.27-74.523 48.5-3.686 3.542-7.428 7.374-10.869 11.06l159.202 159.203c3.687-3.232 7.627-7.055 11.162-10.75 22.171-23.056 38.495-48.778 48.421-74.312z" fill="#d789b9"/><path d="m364.834 260.434-37.378-37.461c-6.687 26.033-22.446 53.995-45.942 77.491-3.992 3.992-7.453 6.992-11.292 10.008l34.682 35.379c2.644-2.332 5.314-4.833 8.03-7.549 23.952-23.95 41.462-51.014 51.9-77.868z" fill="#c668b9"/><path d="m210.86 251.108c40.92 5.33 69.225 40.168 97.428 38.775 18.741-.926 37.962-9.998 51.567-17.762l4.29-11.564-20.754-20.754c-9.84 1.857-21.765 3.555-31.451 2.168-30.485-4.367-52.502-51.019-99.057-59.426-31.91-5.762-52.744-3.408-66.834 3.751" fill="#fff"/><path d="m320.95 242.464c-6.345 15.354-15.627 30.725-27.655 45.112 5.039 1.653 10.013 2.553 14.993 2.308 18.736-.926 37.952-9.994 51.556-17.756.026-.059.049-.117.074-.177l.016-.005c1.781-3.841 3.415-7.687 4.908-11.529l-20.766-20.788c-6.949 1.311-15.621 2.713-23.126 2.835z" fill="#ffbffc"/><path d="m446.481 111.746-66.357-66.357c-3.797-3.797-3.797-9.953 0-13.75l28.331-28.331c3.797-3.797 9.953-3.797 13.75 0l66.357 66.357c3.797 3.797 3.797 9.953 0 13.75l-28.331 28.331c-3.797 3.797-9.953 3.797-13.75 0z" fill="#d789b9"/><g><path d="m343.664 123.589c-3.552 0-6.992-1.897-8.802-5.24-2.631-4.856-.825-10.926 4.031-13.556 2.262-1.225 4.419-2.466 6.412-3.689 4.71-2.888 10.865-1.414 13.754 3.293s1.414 10.865-3.293 13.753c-2.3 1.411-4.772 2.833-7.35 4.229-1.513.82-3.144 1.21-4.752 1.21z" fill="#fff"/></g><g><path d="m276.802 149.197c-4.618 0-8.767-3.217-9.77-7.915-1.153-5.401 2.291-10.714 7.691-11.867 14.482-3.091 27.938-8.576 42.185-14.383l1.949-.794c5.119-2.085 10.951.377 13.033 5.491 2.083 5.115-.376 10.95-5.49 13.033l-1.943.791c-14.427 5.88-29.345 11.961-45.559 15.422-.702.15-1.404.222-2.096.222z" fill="#fff"/></g></g><path d="m58.939 111.966 8.214 23.098c.352.989 1.048 1.773 1.927 2.169l20.521 9.246c2.899 1.306 2.899 5.925 0 7.232l-20.521 9.246c-.879.396-1.575 1.18-1.927 2.168l-8.214 23.098c-1.16 3.263-5.265 3.263-6.425 0l-8.214-23.099c-.352-.989-1.048-1.773-1.927-2.168l-20.521-9.246c-2.899-1.306-2.899-5.925 0-7.232l20.521-9.246c.879-.396 1.575-1.18 1.927-2.169l8.214-23.098c1.161-3.262 5.265-3.262 6.425.001z" fill="#e8c2d8"/><ellipse cx="119.705" cy="44.312" fill="#d789b9" rx="17.937" ry="17.937" transform="matrix(.23 -.973 .973 .23 49.076 150.634)"/><circle cx="252.542" cy="53.052" fill="#d789b9" r="7.737"/><path d="m441.567 332.387 6.093 17.133c.261.733.777 1.315 1.429 1.608l15.222 6.858c2.151.969 2.151 4.395 0 5.364l-15.222 6.858c-.652.294-1.168.875-1.429 1.608l-6.093 17.133c-.861 2.421-3.905 2.421-4.766 0l-6.093-17.133c-.261-.734-.777-1.315-1.429-1.608l-15.222-6.858c-2.151-.969-2.151-4.395 0-5.364l15.222-6.858c.652-.294 1.168-.875 1.429-1.608l6.093-17.133c.861-2.42 3.905-2.42 4.766 0z" fill="#e8c2d8"/></g></svg>