<svg id="Capa_1" enable-background="new 0 0 488.485 488.485" height="512" viewBox="0 0 488.485 488.485" width="512" xmlns="http://www.w3.org/2000/svg"><g><g><path d="m365.363 256.012c-47.583 0-86.158 11.194-86.158 67.72 0 56.527 38.574 102.35 86.158 102.35s86.158-45.824 86.158-102.35-38.574-67.72-86.158-67.72zm-2.733 138.784c-30.076 0-54.458-28.964-54.458-64.693s24.382-42.804 54.458-42.804 54.458 7.075 54.458 42.804c0 35.73-24.382 64.693-54.458 64.693z" fill="#c1e5ef"/><g><path d="m223.414 5.143c5.725-6.73 16.937-6.879 22.84-.305 11.066 12.325 26.124 33.509 26.449 57.791.514 38.477-36.161 70.165-36.161 70.165s-37.509-30.696-38.023-69.174c-.325-24.282 14.162-45.861 24.895-58.477z" fill="#a1e8c3"/><path d="m272.702 62.628c-.325-24.282-15.382-45.465-26.449-57.79-5.903-6.574-17.115-6.425-22.84.305-4.752 5.586-10.239 12.932-14.851 21.489 3.725-5.401 20.929-6.48 24.797-1.182 7.252 9.934 17.129 27.001 17.389 46.53.413 30.945-16.142 58.116-16.142 58.116s-5.621-4.521-12.432-11.902c7.727 9.154 14.365 14.599 14.365 14.599s36.678-31.687 36.163-70.165z" fill="#85adc2"/><g><path d="m242.433 133.057c-1.811 0-3.598-.816-4.776-2.37-1.13-1.488-27.526-37.016-15.105-85.616.821-3.211 4.086-5.148 7.299-4.328 3.211.821 5.148 4.089 4.328 7.299-10.946 42.825 12.804 75.081 13.045 75.402 1.987 2.645 1.464 6.404-1.176 8.399-1.083.817-2.355 1.214-3.615 1.214z" fill="#518699"/></g></g><g><path d="m331.32 37.678c9.306-1.807 18.805 5.576 19.35 15.04 1.022 17.743-.543 45.585-16.533 66.157-25.338 32.598-77.303 34.599-77.303 34.599s-10.884-50.852 14.454-83.45c15.991-20.572 42.586-28.958 60.032-32.346z" fill="#a1e8c3"/><path d="m350.671 52.718c-.545-9.464-10.044-16.848-19.35-15.04-7.189 1.396-15.931 3.644-24.845 7.24 6.74-2.033 19.888 9.411 19.582 16.444-.574 13.184-3.725 34.104-16.585 50.649-20.378 26.217-52.453 37.906-52.453 37.906s-1.699-7.616-2.46-18.437c.335 12.928 2.275 21.992 2.275 21.992s51.965-2.001 77.303-34.599c15.99-20.57 17.555-48.412 16.533-66.155z" fill="#85adc2"/><g><path d="m256.829 159.475c-2.77 0-5.259-1.928-5.861-4.745-.468-2.189-11.161-53.979 15.584-88.389 1.364-1.755 2.837-3.475 4.378-5.113 2.27-2.415 6.065-2.532 8.481-.261 2.414 2.27 2.531 6.067.261 8.481-1.285 1.366-2.512 2.799-3.646 4.258-23.353 30.045-13.427 78.03-13.323 78.512.693 3.24-1.371 6.43-4.611 7.123-.425.091-.847.134-1.263.134z" fill="#518699"/></g><g><path d="m265.619 158.609c-.055 0-.109 0-.165-.002-3.308-.089-5.918-2.833-5.836-6.141.05-1.996 1.71-49.251 44.505-81.547 2.647-1.997 6.407-1.47 8.403 1.175s1.471 6.407-1.175 8.403c-38.036 28.705-39.725 71.848-39.737 72.28-.095 3.253-2.762 5.832-5.995 5.832z" fill="#518699"/></g></g><circle cx="242.606" cy="121.392" fill="#9781dd" r="37.293"/><ellipse cx="182.938" cy="124.104" fill="#e8a284" rx="37.293" ry="37.293" transform="matrix(.707 -.707 .707 .707 -34.173 165.706)"/><path d="m344.82 226.578c.047-.585.08-57.829.08-57.829 0-14.433-14.132-26.134-31.565-26.134h-171.044c-17.433 0-31.565 11.701-31.565 26.134 0 0 .033 57.244.08 57.829-11.642 9.507-18.865 22.714-18.865 37.322v172.16c0 28.953 28.349 52.425 63.319 52.425h145.107c34.97 0 63.32-23.471 63.32-52.425v-172.159c-.001-14.609-7.224-27.816-18.867-37.323z" fill="#c1e5ef"/><path d="m317.641 240.699c.022-.305.041-36.544.051-64.021.002-5.947-4.818-10.766-10.764-10.766h-158.23c-5.946 0-10.766 4.819-10.764 10.766.011 27.477.029 63.716.051 64.021-8.938 7.997-14.483 19.11-14.483 31.399v144.835c0 24.358 21.764 44.105 48.611 44.105h111.4c26.847 0 48.611-19.747 48.611-44.105v-144.835c0-12.289-5.545-23.401-14.483-31.399z" fill="#d789b9"/><path d="m332.124 416.933v-144.835c0-12.289-5.545-23.401-14.483-31.398.022-.306.041-36.545.051-64.021.002-5.946-4.818-10.765-10.764-10.765h-7.848v17.157h-142.83c-8.348 0-15.462 5.216-18.308 12.559.002 4.832.005 9.63.008 14.2 2.851 7.332 9.96 12.538 18.301 12.538h142.818c-.002 1.731-.006 3.562-.009 5.365-.013 6.856 2.144 13.597 6.393 18.978 5.684 7.198 9.01 15.9 9.01 25.275v121.774c0 24.78-23.214 44.868-51.85 44.868h-118.823c-5.269 0-10.367-.689-15.158-1.953 7.986 14.441 24.46 24.362 43.481 24.362h111.4c26.847 0 48.611-19.746 48.611-44.104z" fill="#c668b9"/><g><path d="m344.82 226.578c.047-.585.08-1.173.08-1.768v-56.062c0-14.433-14.132-26.134-31.565-26.134h-40.103c14.275 0 25.847 10.014 25.847 22.367v.931h7.848c5.947 0 10.767 4.818 10.764 10.765-.01 27.477-.029 63.716-.051 64.021 8.938 7.997 14.483 19.109 14.483 31.398v144.835c0 24.358-21.764 44.104-48.611 44.104h-111.4c-19.021 0-35.495-9.921-43.481-24.362-7.977-.377-38.18-20.992-36.692-42.915v42.3c0 28.953 28.349 52.425 63.319 52.425h145.106c34.97 0 63.32-23.472 63.32-52.425v-172.157c.002-14.609-7.221-27.817-18.864-37.323z" fill="#a7adf1"/></g><g><path d="m293.604 200.827h-131.582c-3.313 0-6-2.686-6-6 0-3.313 2.687-6 6-6h131.582c3.313 0 6 2.687 6 6 0 3.314-2.686 6-6 6z" fill="#b74a96"/></g><g><path d="m293.604 226.476h-131.582c-3.313 0-6-2.687-6-6s2.687-6 6-6h131.582c3.313 0 6 2.687 6 6s-2.686 6-6 6z" fill="#b74a96"/></g><g><path d="m151.327 354.055c-5.522 0-10-4.478-10-10v-8.572c0-5.522 4.478-10 10-10 5.523 0 10 4.478 10 10v8.572c0 5.522-4.478 10-10 10z" fill="#fff"/></g><g><path d="m150.711 307.415c-5.439 0-9.896-4.359-9.994-9.82-.143-7.912.222-18.212 4.336-27.71 11.793-27.235 42.355-25.307 62.576-24.03l.582.036c5.512.348 9.698 5.097 9.352 10.609-.348 5.513-5.094 9.71-10.609 9.352l-.584-.037c-20.824-1.316-37.211-1.264-42.964 12.019-2.573 5.939-2.805 13.141-2.692 19.402.1 5.522-4.296 10.079-9.818 10.178-.062 0-.124.001-.185.001z" fill="#fff"/></g><g><path d="m241.826 402.452c-3.313 0-6-2.686-6-6v-14.382c0-3.313 2.687-6 6-6s6 2.687 6 6v14.382c0 3.314-2.687 6-6 6z" fill="#b74a96"/></g><g><path d="m274.105 355.022c-3.313 0-6-2.687-6-6v-14.383c0-3.314 2.687-6 6-6s6 2.686 6 6v14.383c0 3.313-2.686 6-6 6z" fill="#b74a96"/></g><g><path d="m298.258 394.076c-3.313 0-6-2.686-6-6v-14.383c0-3.313 2.687-6 6-6 3.314 0 6 2.687 6 6v14.383c0 3.313-2.687 6-6 6z" fill="#b74a96"/></g></g><path d="m61.696 14.603 8.568 24.091c.367 1.031 1.093 1.849 2.009 2.262l21.404 9.643c3.024 1.362 3.024 6.18 0 7.543l-21.404 9.643c-.916.413-1.643 1.23-2.009 2.262l-8.568 24.091c-1.21 3.404-5.491 3.404-6.701 0l-8.568-24.091c-.367-1.031-1.093-1.849-2.009-2.262l-21.404-9.643c-3.024-1.362-3.024-6.18 0-7.543l21.404-9.643c.916-.413 1.643-1.23 2.009-2.262l8.568-24.091c1.21-3.403 5.49-3.403 6.701 0z" fill="#e8c2d8"/><ellipse cx="427.646" cy="30.188" fill="#d789b9" rx="18.708" ry="18.708" transform="matrix(.851 -.526 .526 .851 47.998 229.336)"/><ellipse cx="459.817" cy="103.662" fill="#d789b9" rx="7.923" ry="7.923" transform="matrix(.23 -.973 .973 .23 253.283 527.361)"/><path d="m430.839 118.455 6.355 17.87c.272.765.811 1.371 1.491 1.678l15.877 7.153c2.243 1.011 2.243 4.585 0 5.595l-15.877 7.153c-.68.306-1.218.912-1.491 1.678l-6.355 17.87c-.898 2.525-4.073 2.525-4.971 0l-6.355-17.87c-.272-.765-.811-1.371-1.491-1.678l-15.877-7.153c-2.243-1.01-2.243-4.584 0-5.595l15.877-7.153c.68-.306 1.218-.913 1.491-1.678l6.355-17.87c.898-2.525 4.073-2.525 4.971 0z" fill="#e8c2d8"/></g></svg>