<svg id="Capa_1" fill="white" enable-background="new 0 0 512 512" height="512" viewBox="0 0 512 512" width="512" xmlns="http://www.w3.org/2000/svg"><g><g><path d="m69.039 122.105 8.224 23.124c.352.99 1.049 1.775 1.929 2.171l20.545 9.256c2.902 1.308 2.902 5.932 0 7.24l-20.545 9.256c-.88.396-1.577 1.181-1.929 2.171l-8.224 23.124c-1.162 3.267-5.271 3.267-6.432 0l-8.224-23.124c-.352-.99-1.049-1.775-1.929-2.171l-20.544-9.256c-2.903-1.308-2.903-5.932 0-7.24l20.544-9.256c.88-.396 1.577-1.181 1.929-2.171l8.224-23.124c1.161-3.267 5.27-3.267 6.432 0z"/><ellipse cx="129.873" cy="54.374" rx="17.957" ry="17.957" transform="matrix(.23 -.973 .973 .23 47.115 168.28)"/><path d="m270.606 63.123c0 4.278-3.468 7.746-7.746 7.746s-7.746-3.468-7.746-7.746 3.468-7.746 7.746-7.746 7.746 3.468 7.746 7.746z"/><path d="m452.099 342.775 6.1 17.153c.261.734.778 1.316 1.431 1.61l15.24 6.866c2.153.97 2.153 4.4 0 5.37l-15.24 6.866c-.653.294-1.17.876-1.431 1.61l-6.1 17.153c-.862 2.423-3.91 2.423-4.771 0l-6.1-17.153c-.261-.734-.778-1.316-1.431-1.61l-15.24-6.866c-2.153-.97-2.153-4.4 0-5.37l15.24-6.866c.652-.294 1.17-.876 1.431-1.61l6.1-17.153c.861-2.423 3.909-2.423 4.771 0z"/></g><g><path d="m506.226 72.676-66.432-66.432c-7.699-7.699-20.225-7.698-27.924 0l-28.363 28.363c-6.536 6.537-7.501 16.545-2.938 24.132l-5.218 5.218c-14.668 14.668-31.813 26.14-50.966 34.101-22.523 8.199-58.103 20.896-64.375 22.481-36.423 9.203-73.19 30.979-103.528 61.316-20.061 20.061-31.687 36.078-42.896 59.098-9.524 19.56-18.182 35.616-29.481 50.404-6.459 8.453-15.108 15.53-25.012 20.464-15.611 7.777-33.269 22.92-47.235 40.508-17.361 21.863-15.465 53.338 4.411 73.213l69.769 69.768c10.708 10.708 24.881 16.219 39.143 16.219 10.826 0 21.705-3.176 31.153-9.667 19.223-13.204 35.542-30.459 43.651-46.157 6.491-12.566 15.257-23.336 26.052-32.009 13.179-10.587 26.894-19.207 43.163-27.129 24.026-11.699 41.266-20.859 61.201-40.793 30.209-30.209 51.946-66.826 61.208-103.108 1.606-6.294 14.485-41.914 22.793-64.441 7.964-19.242 19.468-36.465 34.195-51.192l5.13-5.13c3.043 1.839 6.527 2.841 10.174 2.841 5.274 0 10.233-2.054 13.962-5.783l28.363-28.363c7.698-7.696 7.698-20.222 0-27.922zm-148.019 211.686c-12.493 5.683-26.578 9.207-39.834 9.862-10.237.511-25.141-8.899-39.541-17.995-19.411-12.261-39.391-24.868-57.81-21.987l-52.321-52.321c12.752-4.01 31.322-7.228 53.387-3.246 23.811 4.3 41.374 19.825 56.87 33.522 13.828 12.223 26.889 23.768 42.515 26.007 3.242.464 6.871.685 10.595.685 7.21 0 14.767-.83 20.546-2.322l12.547 12.547c-2.059 5.111-4.389 10.2-6.954 15.248zm-35.031-38.051c-12.066-1.729-23.279-11.64-36.262-23.116-16.675-14.74-35.576-31.446-62.692-36.342-16.609-3.001-31.459-2.293-43.732-.128 19.304-17.246 40.786-30.823 62.651-39.629l99.174 99.173c-6.301.762-13.567.841-19.139.042zm-62.741 132.256c-17.647 8.593-32.562 17.973-46.937 29.521-12.989 10.434-23.52 23.364-31.302 38.429-6.565 12.708-20.818 27.591-37.198 38.842-13.945 9.577-32.787 7.809-44.803-4.207l-69.768-69.768c-12.677-12.677-13.92-32.712-2.889-46.603 12.051-15.176 27.563-28.601 40.483-35.038 12.625-6.289 23.688-15.359 31.994-26.229 12.308-16.108 21.523-33.155 31.573-53.794 7.797-16.012 15.576-27.972 26.993-40.929l25.985 25.984c-2.963 3.998-5.992 8.113-9.099 12.336-29.607 40.245-63.164 85.859-97.331 106.315-2.846 1.704-3.772 5.393-2.068 8.239 1.126 1.88 3.117 2.922 5.16 2.922 1.049 0 2.113-.276 3.08-.854 36.241-21.698 70.559-68.346 100.837-109.504 2.698-3.667 5.37-7.297 8.011-10.866l33.597 33.598-118.322 118.322c-2.346 2.346-2.346 6.149 0 8.495 1.173 1.173 2.71 1.759 4.248 1.759 1.537 0 3.075-.587 4.247-1.759l118.321-118.321 32.426 32.426c-3.846 2.85-7.762 5.734-11.721 8.647-40.627 29.897-86.674 63.782-108.438 100.133-1.704 2.846-.778 6.535 2.068 8.239.966.579 2.03.854 3.08.854 2.043 0 4.034-1.042 5.16-2.922 20.523-34.278 65.536-67.403 105.252-96.628 4.461-3.283 8.87-6.529 13.188-9.735l26.909 26.909c-12.812 10.247-25.616 16.851-42.736 25.187zm55.808-36.95c-1.343 1.343-2.669 2.624-3.986 3.861l-78.755-78.755c11.986 2.661 25.602 11.254 38.913 19.663 16.163 10.209 31.458 19.871 45.152 19.871.467 0 .934-.011 1.397-.034 9.848-.487 20.102-2.405 29.965-5.502-9.035 14.417-20.037 28.247-32.686 40.896zm118.196-218.741c-16.647 16.647-29.639 36.123-38.617 57.888-.048.117-.094.235-.138.353-2.152 5.833-21.092 57.261-23.476 66.599-.757 2.966-1.611 5.935-2.553 8.905l-52.787-52.787 31.593-31.593c2.346-2.346 2.346-6.149 0-8.495-2.344-2.345-6.149-2.345-8.494 0l-31.593 31.593-52.742-52.742c3.095-.981 6.19-1.864 9.281-2.645 9.296-2.349 60.697-21.032 66.527-23.155.136-.049.272-.102.406-.157 21.674-8.975 41.074-21.936 57.662-38.524l4.791-4.791 44.845 44.845zm29.462-8.267-66.04-66.039 27.971-27.971 66.04 66.04z"/><path d="m354.085 133.74c-3.556 0-7-1.899-8.812-5.246-2.634-4.862-.826-10.938 4.036-13.571 2.264-1.226 4.424-2.469 6.419-3.694 4.715-2.892 10.878-1.416 13.77 3.297 2.892 4.712 1.416 10.877-3.297 13.769-2.302 1.412-4.778 2.837-7.358 4.234-1.515.822-3.148 1.211-4.758 1.211z"/><path d="m287.148 159.378c-4.623 0-8.777-3.22-9.78-7.924-1.155-5.407 2.294-10.726 7.7-11.881 14.498-3.094 27.969-8.585 42.232-14.399l1.952-.795c5.125-2.087 10.964.377 13.048 5.497 2.085 5.121-.376 10.963-5.496 13.048l-1.946.792c-14.443 5.887-29.378 11.974-45.61 15.439-.705.151-1.408.223-2.1.223z"/></g></g></svg>
